<svg width="1400" height="250" viewBox="0 0 1400 250" fill="none" xmlns="http://www.w3.org/2000/svg">
<rect width="187.143" height="250" rx="7" fill="#343536"/>
<rect x="41.5714" y="41" width="104" height="104" rx="52" stroke="#00CC33" stroke-width="2"/>
<rect x="53.5714" y="53" width="80" height="80" rx="40" fill="#9966FF"/>
<rect x="105.143" y="117" width="51" height="22" rx="3" fill="#FF0000"/>
<path d="M115.863 132V124.223H117.259V130.818H120.697V132H115.863ZM123.21 124.223V132H121.814V124.223H123.21ZM125.692 124.223L127.711 130.356H127.797L129.827 124.223H131.364L128.614 132H126.895L124.156 124.223H125.692ZM132.287 132V124.223H137.347V125.394H133.684V127.521H137.078V128.691H133.684V130.818H137.368V132H132.287Z" fill="white"/>
<rect x="143.143" y="125" width="6" height="6" rx="3" fill="white"/>
<path d="M53.3292 168.619C56.7492 168.619 58.7247 169.532 58.7413 171.192C58.7247 172.869 56.7492 173.766 53.3292 173.782C49.9093 173.766 47.9171 172.869 47.9171 171.192C47.9171 169.532 49.9093 168.619 53.3292 168.619ZM53.3292 169.997C51.0382 169.997 49.8429 170.412 49.8595 171.192C49.8429 172.022 51.0382 172.404 53.3292 172.421C55.6535 172.404 56.8322 172.022 56.8322 171.192C56.8322 170.412 55.6535 169.997 53.3292 169.997ZM60.1857 174.562V176.007H54.2423V177.152H58.4757V180.821H49.9425V181.934H58.8908V183.345H48.1329V179.51H56.6662V178.514H48.1163V177.152H52.3996V176.007H46.506V174.562H60.1857ZM66.5773 171.126C66.5607 173.102 67.8058 174.978 70.1632 175.741L69.2003 177.202C67.5319 176.638 66.3532 175.509 65.6974 174.064C65.025 175.658 63.7882 176.903 62.0451 177.518L61.0158 176.057C63.4894 175.26 64.7179 173.234 64.7179 171.109V169.399H66.5773V171.126ZM73.0353 168.47V172.902H75.1271V174.463H73.0353V179.493H71.1925V168.47H73.0353ZM73.6329 181.685V183.179H63.423V178.414H65.3156V181.685H73.6329ZM82.714 168.619C86.1339 168.619 88.1095 169.532 88.1261 171.192C88.1095 172.869 86.1339 173.766 82.714 173.782C79.2941 173.766 77.3019 172.869 77.3019 171.192C77.3019 169.532 79.2941 168.619 82.714 168.619ZM82.714 169.997C80.423 169.997 79.2277 170.412 79.2443 171.192C79.2277 172.022 80.423 172.404 82.714 172.421C85.0382 172.404 86.2169 172.022 86.2169 171.192C86.2169 170.412 85.0382 169.997 82.714 169.997ZM89.5704 174.562V176.007H83.6271V177.152H87.8605V180.821H79.3273V181.934H88.2755V183.345H77.5177V179.51H86.0509V178.514H77.5011V177.152H81.7843V176.007H75.8908V174.562H89.5704ZM104.296 180.074V181.602H90.5831V180.074H104.296ZM93.9367 169.482V172.056H100.893V169.482H102.735V177.401H92.0939V169.482H93.9367ZM93.9367 175.957H100.893V173.5H93.9367V175.957ZM113.028 170.528C113.028 172.853 115.303 175.177 118.441 175.725L117.61 177.269C115.095 176.737 113.037 175.218 112.066 173.201C111.069 175.202 109.011 176.729 106.504 177.269L105.691 175.725C108.795 175.16 111.053 172.836 111.069 170.528V169.416H113.028V170.528ZM118.988 180.041V181.568H105.276V180.041H118.988ZM120.582 182V169.98H128.285V171.79H122.74V175.077H127.754V176.887H122.74V182H120.582ZM138.213 174.031C137.964 172.587 136.802 171.757 135.341 171.757C133.365 171.757 131.987 173.268 131.987 175.99C131.987 178.746 133.382 180.224 135.341 180.224C136.769 180.224 137.931 179.427 138.213 178.016H140.388C140.056 180.323 138.163 182.166 135.308 182.166C132.137 182.166 129.813 179.858 129.813 175.99C129.813 172.105 132.17 169.814 135.308 169.814C137.964 169.814 140.023 171.358 140.388 174.031H138.213Z" fill="#EDEFF2"/>
<path d="M80.1461 195.755V202.293H79.194V195.755H80.1461ZM77.9879 195.983V202.153H77.0358V199.335H75.4489V201.442H71.0817V196.567H75.4489V198.51H77.0358V195.983H77.9879ZM72.0211 197.354V200.681H74.5221V197.354H72.0211ZM80.1461 202.852V206.876H72.694V202.852H80.1461ZM73.6715 203.639V206.063H79.1686V203.639H73.6715ZM91.153 195.742V207.054H90.1627V200.77H87.4586V204.197H82.2536V196.631H83.2565V199.576H86.4811V196.631H87.4586V199.944H90.1627V195.742H91.153ZM83.2565 203.372H86.4811V200.376H83.2565V203.372ZM99.9508 196.809V206H98.7955V198.002H98.7448L96.5104 199.487V198.332L98.7955 196.809H99.9508ZM105.397 206.127C103.734 206.127 102.477 205.099 102.414 203.689H103.518C103.607 204.515 104.407 205.124 105.397 205.124C106.59 205.124 107.454 204.248 107.454 203.093C107.454 201.899 106.552 201.023 105.321 201.011C104.547 200.998 103.95 201.239 103.607 201.836H102.503L103.15 196.809H108.127V197.824H104.102L103.759 200.516H103.848C104.255 200.198 104.877 199.982 105.524 199.982C107.276 199.982 108.571 201.277 108.571 203.067C108.571 204.845 107.225 206.127 105.397 206.127ZM113.167 206.127C111.123 206.127 109.955 204.413 109.955 201.404C109.955 198.421 111.148 196.682 113.167 196.682C115.185 196.682 116.379 198.421 116.379 201.404C116.379 204.413 115.198 206.127 113.167 206.127ZM113.167 205.111C114.487 205.111 115.261 203.778 115.261 201.404C115.261 199.03 114.487 197.672 113.167 197.672C111.846 197.672 111.059 199.03 111.059 201.404C111.059 203.778 111.834 205.111 113.167 205.111Z" fill="#00CC33"/>
<rect x="202.143" width="187.143" height="250" rx="7" fill="#343536"/>
<rect x="243.714" y="41" width="104" height="104" rx="52" stroke="#525457" stroke-width="2"/>
<rect x="255.714" y="53" width="80" height="80" rx="40" fill="#9966FF"/>
<path d="M255.472 168.619C258.892 168.619 260.868 169.532 260.884 171.192C260.868 172.869 258.892 173.766 255.472 173.782C252.052 173.766 250.06 172.869 250.06 171.192C250.06 169.532 252.052 168.619 255.472 168.619ZM255.472 169.997C253.181 169.997 251.986 170.412 252.002 171.192C251.986 172.022 253.181 172.404 255.472 172.421C257.796 172.404 258.975 172.022 258.975 171.192C258.975 170.412 257.796 169.997 255.472 169.997ZM262.329 174.562V176.007H256.385V177.152H260.619V180.821H252.085V181.934H261.034V183.345H250.276V179.51H258.809V178.514H250.259V177.152H254.542V176.007H248.649V174.562H262.329ZM268.72 171.126C268.704 173.102 269.949 174.978 272.306 175.741L271.343 177.202C269.675 176.638 268.496 175.509 267.84 174.064C267.168 175.658 265.931 176.903 264.188 177.518L263.159 176.057C265.632 175.26 266.861 173.234 266.861 171.109V169.399H268.72V171.126ZM275.178 168.47V172.902H277.27V174.463H275.178V179.493H273.335V168.47H275.178ZM275.776 181.685V183.179H265.566V178.414H267.458V181.685H275.776ZM284.857 168.619C288.277 168.619 290.252 169.532 290.269 171.192C290.252 172.869 288.277 173.766 284.857 173.782C281.437 173.766 279.445 172.869 279.445 171.192C279.445 169.532 281.437 168.619 284.857 168.619ZM284.857 169.997C282.566 169.997 281.371 170.412 281.387 171.192C281.371 172.022 282.566 172.404 284.857 172.421C287.181 172.404 288.36 172.022 288.36 171.192C288.36 170.412 287.181 169.997 284.857 169.997ZM291.713 174.562V176.007H285.77V177.152H290.003V180.821H281.47V181.934H290.418V183.345H279.661V179.51H288.194V178.514H279.644V177.152H283.927V176.007H278.034V174.562H291.713ZM306.439 180.074V181.602H292.726V180.074H306.439ZM296.079 169.482V172.056H303.036V169.482H304.878V177.401H294.237V169.482H296.079ZM296.079 175.957H303.036V173.5H296.079V175.957ZM315.171 170.528C315.171 172.853 317.446 175.177 320.583 175.725L319.753 177.269C317.238 176.737 315.18 175.218 314.208 173.201C313.212 175.202 311.154 176.729 308.647 177.269L307.833 175.725C310.938 175.16 313.196 172.836 313.212 170.528V169.416H315.171V170.528ZM321.131 180.041V181.568H307.418V180.041H321.131ZM322.725 182V169.98H330.428V171.79H324.883V175.077H329.897V176.887H324.883V182H322.725ZM340.356 174.031C340.107 172.587 338.945 171.757 337.484 171.757C335.508 171.757 334.13 173.268 334.13 175.99C334.13 178.746 335.525 180.224 337.484 180.224C338.912 180.224 340.074 179.427 340.356 178.016H342.531C342.199 180.323 340.306 182.166 337.451 182.166C334.28 182.166 331.955 179.858 331.955 175.99C331.955 172.105 334.313 169.814 337.451 169.814C340.107 169.814 342.165 171.358 342.531 174.031H340.356Z" fill="#EDEFF2"/>
<path d="M282.289 195.755V202.293H281.337V195.755H282.289ZM280.131 195.983V202.153H279.179V199.335H277.592V201.442H273.225V196.567H277.592V198.51H279.179V195.983H280.131ZM274.164 197.354V200.681H276.665V197.354H274.164ZM282.289 202.852V206.876H274.837V202.852H282.289ZM275.814 203.639V206.063H281.311V203.639H275.814ZM293.296 195.742V207.054H292.306V200.77H289.601V204.197H284.396V196.631H285.399V199.576H288.624V196.631H289.601V199.944H292.306V195.742H293.296ZM285.399 203.372H288.624V200.376H285.399V203.372ZM302.094 196.809V206H300.938V198.002H300.888L298.653 199.487V198.332L300.938 196.809H302.094ZM307.54 206.127C305.877 206.127 304.62 205.099 304.557 203.689H305.661C305.75 204.515 306.55 205.124 307.54 205.124C308.733 205.124 309.597 204.248 309.597 203.093C309.597 201.899 308.695 201.023 307.464 201.011C306.689 200.998 306.093 201.239 305.75 201.836H304.645L305.293 196.809H310.269V197.824H306.245L305.902 200.516H305.991C306.397 200.198 307.019 199.982 307.667 199.982C309.419 199.982 310.714 201.277 310.714 203.067C310.714 204.845 309.368 206.127 307.54 206.127ZM315.309 206.127C313.266 206.127 312.098 204.413 312.098 201.404C312.098 198.421 313.291 196.682 315.309 196.682C317.328 196.682 318.521 198.421 318.521 201.404C318.521 204.413 317.341 206.127 315.309 206.127ZM315.309 205.111C316.63 205.111 317.404 203.778 317.404 201.404C317.404 199.03 316.63 197.672 315.309 197.672C313.989 197.672 313.202 199.03 313.202 201.404C313.202 203.778 313.976 205.111 315.309 205.111Z" fill="#00CC33"/>
<g opacity="0.2">
<rect x="404.286" width="187.143" height="250" rx="7" fill="#343536"/>
<rect x="446.857" y="41" width="102" height="102" rx="51" stroke="#525457" stroke-width="2"/>
<rect x="452.857" y="47" width="90" height="90" rx="45" fill="#9966FF"/>
<path d="M449.605 172.031C449.356 170.587 448.193 169.757 446.733 169.757C444.757 169.757 443.379 171.268 443.379 173.99C443.379 176.746 444.774 178.224 446.733 178.224C448.16 178.224 449.322 177.427 449.605 176.016H451.779C451.447 178.323 449.555 180.166 446.699 180.166C443.528 180.166 441.204 177.858 441.204 173.99C441.204 170.105 443.562 167.814 446.699 167.814C449.356 167.814 451.414 169.358 451.779 172.031H449.605ZM455.664 174.721V180H453.539V167.98H455.614V172.513H455.731C456.146 171.5 457.009 170.869 458.403 170.869C460.279 170.869 461.508 172.081 461.508 174.256V180H459.4V174.588C459.4 173.359 458.735 172.662 457.623 172.662C456.478 172.662 455.664 173.409 455.664 174.721ZM463.102 177.46C463.102 175.435 464.778 174.837 466.455 174.737C467.078 174.696 468.373 174.621 468.763 174.604V173.891C468.763 172.994 468.182 172.479 467.136 172.479C466.19 172.479 465.609 172.911 465.443 173.559H463.401C463.55 172.031 464.928 170.869 467.186 170.869C468.896 170.869 470.871 171.566 470.871 173.974V180H468.846V178.755H468.779C468.381 179.519 467.534 180.183 466.123 180.183C464.397 180.183 463.102 179.236 463.102 177.46ZM465.144 177.443C465.144 178.224 465.775 178.622 466.671 178.622C467.949 178.622 468.779 177.775 468.779 176.763V176.016L466.787 176.148C465.775 176.231 465.144 176.646 465.144 177.443ZM474.988 174.721V180H472.863V170.985H474.889V172.513H475.005C475.42 171.5 476.333 170.869 477.678 170.869C479.554 170.869 480.782 172.098 480.766 174.256V180H478.657V174.588C478.657 173.376 478.01 172.662 476.898 172.662C475.769 172.662 474.988 173.409 474.988 174.721ZM484.916 174.721V180H482.791V170.985H484.817V172.513H484.933C485.348 171.5 486.261 170.869 487.606 170.869C489.482 170.869 490.71 172.098 490.693 174.256V180H488.585V174.588C488.585 173.376 487.938 172.662 486.825 172.662C485.696 172.662 484.916 173.409 484.916 174.721ZM496.72 180.183C493.997 180.183 492.337 178.373 492.337 175.551C492.337 172.762 494.03 170.869 496.604 170.869C498.812 170.869 500.721 172.247 500.721 175.418V176.082H494.429C494.454 177.618 495.359 178.522 496.736 178.522C497.666 178.522 498.297 178.124 498.563 177.593H500.638C500.256 179.153 498.812 180.183 496.72 180.183ZM494.445 174.638H498.695C498.679 173.409 497.865 172.513 496.637 172.513C495.359 172.513 494.512 173.484 494.445 174.638ZM504.489 167.98V180H502.364V167.98H504.489ZM520.527 167.98V180H518.601L512.906 171.782H512.807V180H510.649V167.98H512.608L518.269 176.198H518.385V167.98H520.527ZM522.236 177.46C522.236 175.435 523.913 174.837 525.59 174.737C526.213 174.696 527.507 174.621 527.898 174.604V173.891C527.898 172.994 527.317 172.479 526.271 172.479C525.324 172.479 524.743 172.911 524.577 173.559H522.535C522.685 172.031 524.063 170.869 526.32 170.869C528.03 170.869 530.006 171.566 530.006 173.974V180H527.981V178.755H527.914C527.516 179.519 526.669 180.183 525.258 180.183C523.531 180.183 522.236 179.236 522.236 177.46ZM524.278 177.443C524.278 178.224 524.909 178.622 525.806 178.622C527.084 178.622 527.914 177.775 527.914 176.763V176.016L525.922 176.148C524.909 176.231 524.278 176.646 524.278 177.443ZM531.998 180V170.985H534.024V172.513H534.14C534.505 171.483 535.418 170.869 536.613 170.869C537.842 170.869 538.705 171.483 539.054 172.513H539.153C539.552 171.517 540.548 170.869 541.86 170.869C543.503 170.869 544.665 171.932 544.665 173.94V180H542.557V174.272C542.557 173.144 541.876 172.646 541.013 172.646C539.967 172.646 539.369 173.359 539.369 174.372V180H537.311V174.189C537.311 173.26 536.68 172.646 535.783 172.646C534.87 172.646 534.123 173.393 534.123 174.521V180H531.998ZM550.692 180.183C547.969 180.183 546.309 178.373 546.309 175.551C546.309 172.762 548.002 170.869 550.575 170.869C552.783 170.869 554.693 172.247 554.693 175.418V176.082H548.401C548.425 177.618 549.33 178.522 550.708 178.522C551.638 178.522 552.269 178.124 552.534 177.593H554.61C554.228 179.153 552.783 180.183 550.692 180.183ZM548.417 174.638H552.667C552.651 173.409 551.837 172.513 550.609 172.513C549.33 172.513 548.484 173.484 548.417 174.638Z" fill="#EDEFF2"/>
<path d="M484.432 188.755V195.293H483.48V188.755H484.432ZM482.274 188.983V195.153H481.321V192.335H479.735V194.442H475.367V189.567H479.735V191.51H481.321V188.983H482.274ZM476.307 190.354V193.681H478.808V190.354H476.307ZM484.432 195.852V199.876H476.98V195.852H484.432ZM477.957 196.639V199.063H483.454V196.639H477.957ZM495.439 188.742V200.054H494.448V193.77H491.744V197.197H486.539V189.631H487.542V192.576H490.767V189.631H491.744V192.944H494.448V188.742H495.439ZM487.542 196.372H490.767V193.376H487.542V196.372ZM504.236 189.809V199H503.081V191.002H503.03L500.796 192.487V191.332L503.081 189.809H504.236ZM509.683 199.127C508.02 199.127 506.763 198.099 506.699 196.689H507.804C507.893 197.515 508.693 198.124 509.683 198.124C510.876 198.124 511.739 197.248 511.739 196.093C511.739 194.899 510.838 194.023 509.607 194.011C508.832 193.998 508.235 194.239 507.893 194.836H506.788L507.436 189.809H512.412V190.824H508.388L508.045 193.516H508.134C508.54 193.198 509.162 192.982 509.81 192.982C511.562 192.982 512.857 194.277 512.857 196.067C512.857 197.845 511.511 199.127 509.683 199.127ZM517.452 199.127C515.408 199.127 514.24 197.413 514.24 194.404C514.24 191.421 515.434 189.682 517.452 189.682C519.471 189.682 520.664 191.421 520.664 194.404C520.664 197.413 519.484 199.127 517.452 199.127ZM517.452 198.111C518.773 198.111 519.547 196.778 519.547 194.404C519.547 192.03 518.773 190.672 517.452 190.672C516.132 190.672 515.345 192.03 515.345 194.404C515.345 196.778 516.119 198.111 517.452 198.111Z" fill="#96999E"/>
</g>
<g opacity="0.2">
<rect x="606.429" width="187.143" height="250" rx="7" fill="#343536"/>
<rect x="649" y="41" width="102" height="102" rx="51" stroke="#525457" stroke-width="2"/>
<rect x="655" y="47" width="90" height="90" rx="45" fill="#9966FF"/>
<path d="M651.748 172.031C651.499 170.587 650.336 169.757 648.876 169.757C646.9 169.757 645.522 171.268 645.522 173.99C645.522 176.746 646.917 178.224 648.876 178.224C650.303 178.224 651.465 177.427 651.748 176.016H653.922C653.59 178.323 651.698 180.166 648.842 180.166C645.671 180.166 643.347 177.858 643.347 173.99C643.347 170.105 645.705 167.814 648.842 167.814C651.499 167.814 653.557 169.358 653.922 172.031H651.748ZM657.807 174.721V180H655.682V167.98H657.757V172.513H657.874C658.289 171.5 659.152 170.869 660.546 170.869C662.422 170.869 663.651 172.081 663.651 174.256V180H661.542V174.588C661.542 173.359 660.878 172.662 659.766 172.662C658.621 172.662 657.807 173.409 657.807 174.721ZM665.245 177.46C665.245 175.435 666.921 174.837 668.598 174.737C669.221 174.696 670.516 174.621 670.906 174.604V173.891C670.906 172.994 670.325 172.479 669.279 172.479C668.333 172.479 667.751 172.911 667.585 173.559H665.543C665.693 172.031 667.071 170.869 669.329 170.869C671.039 170.869 673.014 171.566 673.014 173.974V180H670.989V178.755H670.922C670.524 179.519 669.677 180.183 668.266 180.183C666.54 180.183 665.245 179.236 665.245 177.46ZM667.287 177.443C667.287 178.224 667.917 178.622 668.814 178.622C670.092 178.622 670.922 177.775 670.922 176.763V176.016L668.93 176.148C667.917 176.231 667.287 176.646 667.287 177.443ZM677.131 174.721V180H675.006V170.985H677.032V172.513H677.148C677.563 171.5 678.476 170.869 679.821 170.869C681.697 170.869 682.925 172.098 682.909 174.256V180H680.8V174.588C680.8 173.376 680.153 172.662 679.041 172.662C677.912 172.662 677.131 173.409 677.131 174.721ZM687.059 174.721V180H684.934V170.985H686.959V172.513H687.076C687.491 171.5 688.404 170.869 689.749 170.869C691.625 170.869 692.853 172.098 692.836 174.256V180H690.728V174.588C690.728 173.376 690.081 172.662 688.968 172.662C687.839 172.662 687.059 173.409 687.059 174.721ZM698.863 180.183C696.14 180.183 694.48 178.373 694.48 175.551C694.48 172.762 696.173 170.869 698.747 170.869C700.955 170.869 702.864 172.247 702.864 175.418V176.082H696.572C696.597 177.618 697.501 178.522 698.879 178.522C699.809 178.522 700.44 178.124 700.706 177.593H702.781C702.399 179.153 700.955 180.183 698.863 180.183ZM696.588 174.638H700.838C700.822 173.409 700.008 172.513 698.78 172.513C697.501 172.513 696.655 173.484 696.588 174.638ZM706.632 167.98V180H704.507V167.98H706.632ZM722.669 167.98V180H720.744L715.049 171.782H714.95V180H712.792V167.98H714.751L720.412 176.198H720.528V167.98H722.669ZM724.379 177.46C724.379 175.435 726.056 174.837 727.733 174.737C728.355 174.696 729.65 174.621 730.041 174.604V173.891C730.041 172.994 729.459 172.479 728.414 172.479C727.467 172.479 726.886 172.911 726.72 173.559H724.678C724.828 172.031 726.206 170.869 728.463 170.869C730.173 170.869 732.149 171.566 732.149 173.974V180H730.124V178.755H730.057C729.659 179.519 728.812 180.183 727.401 180.183C725.674 180.183 724.379 179.236 724.379 177.46ZM726.421 177.443C726.421 178.224 727.052 178.622 727.949 178.622C729.227 178.622 730.057 177.775 730.057 176.763V176.016L728.065 176.148C727.052 176.231 726.421 176.646 726.421 177.443ZM734.141 180V170.985H736.167V172.513H736.283C736.648 171.483 737.561 170.869 738.756 170.869C739.985 170.869 740.848 171.483 741.197 172.513H741.296C741.695 171.517 742.691 170.869 744.002 170.869C745.646 170.869 746.808 171.932 746.808 173.94V180H744.7V174.272C744.7 173.144 744.019 172.646 743.156 172.646C742.11 172.646 741.512 173.359 741.512 174.372V180H739.454V174.189C739.454 173.26 738.823 172.646 737.926 172.646C737.013 172.646 736.266 173.393 736.266 174.521V180H734.141ZM752.834 180.183C750.112 180.183 748.452 178.373 748.452 175.551C748.452 172.762 750.145 170.869 752.718 170.869C754.926 170.869 756.835 172.247 756.835 175.418V176.082H750.543C750.568 177.618 751.473 178.522 752.851 178.522C753.781 178.522 754.412 178.124 754.677 177.593H756.752C756.371 179.153 754.926 180.183 752.834 180.183ZM750.56 174.638H754.81C754.793 173.409 753.98 172.513 752.751 172.513C751.473 172.513 750.626 173.484 750.56 174.638Z" fill="#EDEFF2"/>
<path d="M686.575 188.755V195.293H685.623V188.755H686.575ZM684.417 188.983V195.153H683.464V192.335H681.877V194.442H677.51V189.567H681.877V191.51H683.464V188.983H684.417ZM678.45 190.354V193.681H680.951V190.354H678.45ZM686.575 195.852V199.876H679.123V195.852H686.575ZM680.1 196.639V199.063H685.597V196.639H680.1ZM697.582 188.742V200.054H696.591V193.77H693.887V197.197H688.682V189.631H689.685V192.576H692.91V189.631H693.887V192.944H696.591V188.742H697.582ZM689.685 196.372H692.91V193.376H689.685V196.372ZM706.379 189.809V199H705.224V191.002H705.173L702.939 192.487V191.332L705.224 189.809H706.379ZM711.826 199.127C710.163 199.127 708.906 198.099 708.842 196.689H709.947C710.036 197.515 710.835 198.124 711.826 198.124C713.019 198.124 713.882 197.248 713.882 196.093C713.882 194.899 712.981 194.023 711.75 194.011C710.975 193.998 710.378 194.239 710.036 194.836H708.931L709.579 189.809H714.555V190.824H710.531L710.188 193.516H710.277C710.683 193.198 711.305 192.982 711.953 192.982C713.705 192.982 715 194.277 715 196.067C715 197.845 713.654 199.127 711.826 199.127ZM719.595 199.127C717.551 199.127 716.383 197.413 716.383 194.404C716.383 191.421 717.577 189.682 719.595 189.682C721.614 189.682 722.807 191.421 722.807 194.404C722.807 197.413 721.626 199.127 719.595 199.127ZM719.595 198.111C720.916 198.111 721.69 196.778 721.69 194.404C721.69 192.03 720.916 190.672 719.595 190.672C718.275 190.672 717.488 192.03 717.488 194.404C717.488 196.778 718.262 198.111 719.595 198.111Z" fill="#96999E"/>
</g>
<g opacity="0.2">
<rect x="808.571" width="187.143" height="250" rx="7" fill="#343536"/>
<rect x="851.143" y="41" width="102" height="102" rx="51" stroke="#525457" stroke-width="2"/>
<rect x="857.143" y="47" width="90" height="90" rx="45" fill="#9966FF"/>
<path d="M853.89 172.031C853.641 170.587 852.479 169.757 851.018 169.757C849.043 169.757 847.665 171.268 847.665 173.99C847.665 176.746 849.059 178.224 851.018 178.224C852.446 178.224 853.608 177.427 853.89 176.016H856.065C855.733 178.323 853.841 180.166 850.985 180.166C847.814 180.166 845.49 177.858 845.49 173.99C845.49 170.105 847.847 167.814 850.985 167.814C853.641 167.814 855.7 169.358 856.065 172.031H853.89ZM859.95 174.721V180H857.825V167.98H859.9V172.513H860.016C860.431 171.5 861.295 170.869 862.689 170.869C864.565 170.869 865.794 172.081 865.794 174.256V180H863.685V174.588C863.685 173.359 863.021 172.662 861.909 172.662C860.763 172.662 859.95 173.409 859.95 174.721ZM867.387 177.46C867.387 175.435 869.064 174.837 870.741 174.737C871.364 174.696 872.658 174.621 873.049 174.604V173.891C873.049 172.994 872.468 172.479 871.422 172.479C870.475 172.479 869.894 172.911 869.728 173.559H867.686C867.836 172.031 869.214 170.869 871.471 170.869C873.181 170.869 875.157 171.566 875.157 173.974V180H873.132V178.755H873.065C872.667 179.519 871.82 180.183 870.409 180.183C868.682 180.183 867.387 179.236 867.387 177.46ZM869.429 177.443C869.429 178.224 870.06 178.622 870.957 178.622C872.235 178.622 873.065 177.775 873.065 176.763V176.016L871.073 176.148C870.06 176.231 869.429 176.646 869.429 177.443ZM879.274 174.721V180H877.149V170.985H879.175V172.513H879.291C879.706 171.5 880.619 170.869 881.964 170.869C883.84 170.869 885.068 172.098 885.052 174.256V180H882.943V174.588C882.943 173.376 882.296 172.662 881.183 172.662C880.054 172.662 879.274 173.409 879.274 174.721ZM889.202 174.721V180H887.077V170.985H889.102V172.513H889.219C889.634 171.5 890.547 170.869 891.891 170.869C893.767 170.869 894.996 172.098 894.979 174.256V180H892.871V174.588C892.871 173.376 892.223 172.662 891.111 172.662C889.982 172.662 889.202 173.409 889.202 174.721ZM901.006 180.183C898.283 180.183 896.623 178.373 896.623 175.551C896.623 172.762 898.316 170.869 900.889 170.869C903.097 170.869 905.007 172.247 905.007 175.418V176.082H898.715C898.74 177.618 899.644 178.522 901.022 178.522C901.952 178.522 902.583 178.124 902.848 177.593H904.924C904.542 179.153 903.097 180.183 901.006 180.183ZM898.731 174.638H902.981C902.965 173.409 902.151 172.513 900.923 172.513C899.644 172.513 898.798 173.484 898.731 174.638ZM908.775 167.98V180H906.65V167.98H908.775ZM924.812 167.98V180H922.886L917.192 171.782H917.093V180H914.934V167.98H916.893L922.554 176.198H922.671V167.98H924.812ZM926.522 177.46C926.522 175.435 928.199 174.837 929.876 174.737C930.498 174.696 931.793 174.621 932.183 174.604V173.891C932.183 172.994 931.602 172.479 930.556 172.479C929.61 172.479 929.029 172.911 928.863 173.559H926.821C926.97 172.031 928.348 170.869 930.606 170.869C932.316 170.869 934.292 171.566 934.292 173.974V180H932.266V178.755H932.2C931.802 179.519 930.955 180.183 929.544 180.183C927.817 180.183 926.522 179.236 926.522 177.46ZM928.564 177.443C928.564 178.224 929.195 178.622 930.092 178.622C931.37 178.622 932.2 177.775 932.2 176.763V176.016L930.208 176.148C929.195 176.231 928.564 176.646 928.564 177.443ZM936.284 180V170.985H938.309V172.513H938.426C938.791 171.483 939.704 170.869 940.899 170.869C942.128 170.869 942.991 171.483 943.34 172.513H943.439C943.838 171.517 944.834 170.869 946.145 170.869C947.789 170.869 948.951 171.932 948.951 173.94V180H946.843V174.272C946.843 173.144 946.162 172.646 945.299 172.646C944.253 172.646 943.655 173.359 943.655 174.372V180H941.596V174.189C941.596 173.26 940.966 172.646 940.069 172.646C939.156 172.646 938.409 173.393 938.409 174.521V180H936.284ZM954.977 180.183C952.255 180.183 950.595 178.373 950.595 175.551C950.595 172.762 952.288 170.869 954.861 170.869C957.069 170.869 958.978 172.247 958.978 175.418V176.082H952.686C952.711 177.618 953.616 178.522 954.994 178.522C955.924 178.522 956.554 178.124 956.82 177.593H958.895C958.513 179.153 957.069 180.183 954.977 180.183ZM952.703 174.638H956.953C956.936 173.409 956.123 172.513 954.894 172.513C953.616 172.513 952.769 173.484 952.703 174.638Z" fill="#EDEFF2"/>
<path d="M888.718 188.755V195.293H887.765V188.755H888.718ZM886.559 188.983V195.153H885.607V192.335H884.02V194.442H879.653V189.567H884.02V191.51H885.607V188.983H886.559ZM880.593 190.354V193.681H883.094V190.354H880.593ZM888.718 195.852V199.876H881.265V195.852H888.718ZM882.243 196.639V199.063H887.74V196.639H882.243ZM899.724 188.742V200.054H898.734V193.77H896.03V197.197H890.825V189.631H891.828V192.576H895.053V189.631H896.03V192.944H898.734V188.742H899.724ZM891.828 196.372H895.053V193.376H891.828V196.372ZM908.522 189.809V199H907.367V191.002H907.316L905.082 192.487V191.332L907.367 189.809H908.522ZM913.969 199.127C912.305 199.127 911.049 198.099 910.985 196.689H912.09C912.178 197.515 912.978 198.124 913.969 198.124C915.162 198.124 916.025 197.248 916.025 196.093C916.025 194.899 915.124 194.023 913.892 194.011C913.118 193.998 912.521 194.239 912.178 194.836H911.074L911.721 189.809H916.698V190.824H912.674L912.331 193.516H912.42C912.826 193.198 913.448 192.982 914.095 192.982C915.847 192.982 917.142 194.277 917.142 196.067C917.142 197.845 915.797 199.127 913.969 199.127ZM921.738 199.127C919.694 199.127 918.526 197.413 918.526 194.404C918.526 191.421 919.72 189.682 921.738 189.682C923.757 189.682 924.95 191.421 924.95 194.404C924.95 197.413 923.769 199.127 921.738 199.127ZM921.738 198.111C923.058 198.111 923.833 196.778 923.833 194.404C923.833 192.03 923.058 190.672 921.738 190.672C920.418 190.672 919.631 192.03 919.631 194.404C919.631 196.778 920.405 198.111 921.738 198.111Z" fill="#96999E"/>
</g>
<g opacity="0.2">
<rect x="1010.71" width="187.143" height="250" rx="7" fill="#343536"/>
<rect x="1053.29" y="41" width="102" height="102" rx="51" stroke="#525457" stroke-width="2"/>
<rect x="1059.29" y="47" width="90" height="90" rx="45" fill="#9966FF"/>
<path d="M1056.03 172.031C1055.78 170.587 1054.62 169.757 1053.16 169.757C1051.19 169.757 1049.81 171.268 1049.81 173.99C1049.81 176.746 1051.2 178.224 1053.16 178.224C1054.59 178.224 1055.75 177.427 1056.03 176.016H1058.21C1057.88 178.323 1055.98 180.166 1053.13 180.166C1049.96 180.166 1047.63 177.858 1047.63 173.99C1047.63 170.105 1049.99 167.814 1053.13 167.814C1055.78 167.814 1057.84 169.358 1058.21 172.031H1056.03ZM1062.09 174.721V180H1059.97V167.98H1062.04V172.513H1062.16C1062.57 171.5 1063.44 170.869 1064.83 170.869C1066.71 170.869 1067.94 172.081 1067.94 174.256V180H1065.83V174.588C1065.83 173.359 1065.16 172.662 1064.05 172.662C1062.91 172.662 1062.09 173.409 1062.09 174.721ZM1069.53 177.46C1069.53 175.435 1071.21 174.837 1072.88 174.737C1073.51 174.696 1074.8 174.621 1075.19 174.604V173.891C1075.19 172.994 1074.61 172.479 1073.56 172.479C1072.62 172.479 1072.04 172.911 1071.87 173.559H1069.83C1069.98 172.031 1071.36 170.869 1073.61 170.869C1075.32 170.869 1077.3 171.566 1077.3 173.974V180H1075.27V178.755H1075.21C1074.81 179.519 1073.96 180.183 1072.55 180.183C1070.83 180.183 1069.53 179.236 1069.53 177.46ZM1071.57 177.443C1071.57 178.224 1072.2 178.622 1073.1 178.622C1074.38 178.622 1075.21 177.775 1075.21 176.763V176.016L1073.22 176.148C1072.2 176.231 1071.57 176.646 1071.57 177.443ZM1081.42 174.721V180H1079.29V170.985H1081.32V172.513H1081.43C1081.85 171.5 1082.76 170.869 1084.11 170.869C1085.98 170.869 1087.21 172.098 1087.19 174.256V180H1085.09V174.588C1085.09 173.376 1084.44 172.662 1083.33 172.662C1082.2 172.662 1081.42 173.409 1081.42 174.721ZM1091.34 174.721V180H1089.22V170.985H1091.25V172.513H1091.36C1091.78 171.5 1092.69 170.869 1094.03 170.869C1095.91 170.869 1097.14 172.098 1097.12 174.256V180H1095.01V174.588C1095.01 173.376 1094.37 172.662 1093.25 172.662C1092.13 172.662 1091.34 173.409 1091.34 174.721ZM1103.15 180.183C1100.43 180.183 1098.77 178.373 1098.77 175.551C1098.77 172.762 1100.46 170.869 1103.03 170.869C1105.24 170.869 1107.15 172.247 1107.15 175.418V176.082H1100.86C1100.88 177.618 1101.79 178.522 1103.17 178.522C1104.09 178.522 1104.73 178.124 1104.99 177.593H1107.07C1106.68 179.153 1105.24 180.183 1103.15 180.183ZM1100.87 174.638H1105.12C1105.11 173.409 1104.29 172.513 1103.07 172.513C1101.79 172.513 1100.94 173.484 1100.87 174.638ZM1110.92 167.98V180H1108.79V167.98H1110.92ZM1126.96 167.98V180H1125.03L1119.34 171.782H1119.24V180H1117.08V167.98H1119.04L1124.7 176.198H1124.81V167.98H1126.96ZM1128.67 177.46C1128.67 175.435 1130.34 174.837 1132.02 174.737C1132.64 174.696 1133.94 174.621 1134.33 174.604V173.891C1134.33 172.994 1133.75 172.479 1132.7 172.479C1131.75 172.479 1131.17 172.911 1131.01 173.559H1128.96C1129.11 172.031 1130.49 170.869 1132.75 170.869C1134.46 170.869 1136.43 171.566 1136.43 173.974V180H1134.41V178.755H1134.34C1133.94 179.519 1133.1 180.183 1131.69 180.183C1129.96 180.183 1128.67 179.236 1128.67 177.46ZM1130.71 177.443C1130.71 178.224 1131.34 178.622 1132.23 178.622C1133.51 178.622 1134.34 177.775 1134.34 176.763V176.016L1132.35 176.148C1131.34 176.231 1130.71 176.646 1130.71 177.443ZM1138.43 180V170.985H1140.45V172.513H1140.57C1140.93 171.483 1141.85 170.869 1143.04 170.869C1144.27 170.869 1145.13 171.483 1145.48 172.513H1145.58C1145.98 171.517 1146.98 170.869 1148.29 170.869C1149.93 170.869 1151.09 171.932 1151.09 173.94V180H1148.99V174.272C1148.99 173.144 1148.3 172.646 1147.44 172.646C1146.4 172.646 1145.8 173.359 1145.8 174.372V180H1143.74V174.189C1143.74 173.26 1143.11 172.646 1142.21 172.646C1141.3 172.646 1140.55 173.393 1140.55 174.521V180H1138.43ZM1157.12 180.183C1154.4 180.183 1152.74 178.373 1152.74 175.551C1152.74 172.762 1154.43 170.869 1157 170.869C1159.21 170.869 1161.12 172.247 1161.12 175.418V176.082H1154.83C1154.85 177.618 1155.76 178.522 1157.14 178.522C1158.07 178.522 1158.7 178.124 1158.96 177.593H1161.04C1160.66 179.153 1159.21 180.183 1157.12 180.183ZM1154.85 174.638H1159.1C1159.08 173.409 1158.27 172.513 1157.04 172.513C1155.76 172.513 1154.91 173.484 1154.85 174.638Z" fill="#EDEFF2"/>
<path d="M1090.86 188.755V195.293H1089.91V188.755H1090.86ZM1088.7 188.983V195.153H1087.75V192.335H1086.16V194.442H1081.8V189.567H1086.16V191.51H1087.75V188.983H1088.7ZM1082.74 190.354V193.681H1085.24V190.354H1082.74ZM1090.86 195.852V199.876H1083.41V195.852H1090.86ZM1084.39 196.639V199.063H1089.88V196.639H1084.39ZM1101.87 188.742V200.054H1100.88V193.77H1098.17V197.197H1092.97V189.631H1093.97V192.576H1097.2V189.631H1098.17V192.944H1100.88V188.742H1101.87ZM1093.97 196.372H1097.2V193.376H1093.97V196.372ZM1110.67 189.809V199H1109.51V191.002H1109.46L1107.22 192.487V191.332L1109.51 189.809H1110.67ZM1116.11 199.127C1114.45 199.127 1113.19 198.099 1113.13 196.689H1114.23C1114.32 197.515 1115.12 198.124 1116.11 198.124C1117.3 198.124 1118.17 197.248 1118.17 196.093C1118.17 194.899 1117.27 194.023 1116.04 194.011C1115.26 193.998 1114.66 194.239 1114.32 194.836H1113.22L1113.86 189.809H1118.84V190.824H1114.82L1114.47 193.516H1114.56C1114.97 193.198 1115.59 192.982 1116.24 192.982C1117.99 192.982 1119.29 194.277 1119.29 196.067C1119.29 197.845 1117.94 199.127 1116.11 199.127ZM1123.88 199.127C1121.84 199.127 1120.67 197.413 1120.67 194.404C1120.67 191.421 1121.86 189.682 1123.88 189.682C1125.9 189.682 1127.09 191.421 1127.09 194.404C1127.09 197.413 1125.91 199.127 1123.88 199.127ZM1123.88 198.111C1125.2 198.111 1125.98 196.778 1125.98 194.404C1125.98 192.03 1125.2 190.672 1123.88 190.672C1122.56 190.672 1121.77 192.03 1121.77 194.404C1121.77 196.778 1122.55 198.111 1123.88 198.111Z" fill="#96999E"/>
</g>
<g opacity="0.2">
<rect x="1212.86" width="187.143" height="250" rx="7" fill="#343536"/>
<rect x="1255.43" y="41" width="102" height="102" rx="51" stroke="#525457" stroke-width="2"/>
<rect x="1261.43" y="47" width="90" height="90" rx="45" fill="#9966FF"/>
<path d="M1258.18 172.031C1257.93 170.587 1256.77 169.757 1255.3 169.757C1253.33 169.757 1251.95 171.268 1251.95 173.99C1251.95 176.746 1253.35 178.224 1255.3 178.224C1256.73 178.224 1257.89 177.427 1258.18 176.016H1260.35C1260.02 178.323 1258.13 180.166 1255.27 180.166C1252.1 180.166 1249.78 177.858 1249.78 173.99C1249.78 170.105 1252.13 167.814 1255.27 167.814C1257.93 167.814 1259.99 169.358 1260.35 172.031H1258.18ZM1264.24 174.721V180H1262.11V167.98H1264.19V172.513H1264.3C1264.72 171.5 1265.58 170.869 1266.97 170.869C1268.85 170.869 1270.08 172.081 1270.08 174.256V180H1267.97V174.588C1267.97 173.359 1267.31 172.662 1266.19 172.662C1265.05 172.662 1264.24 173.409 1264.24 174.721ZM1271.67 177.46C1271.67 175.435 1273.35 174.837 1275.03 174.737C1275.65 174.696 1276.94 174.621 1277.33 174.604V173.891C1277.33 172.994 1276.75 172.479 1275.71 172.479C1274.76 172.479 1274.18 172.911 1274.01 173.559H1271.97C1272.12 172.031 1273.5 170.869 1275.76 170.869C1277.47 170.869 1279.44 171.566 1279.44 173.974V180H1277.42V178.755H1277.35C1276.95 179.519 1276.11 180.183 1274.69 180.183C1272.97 180.183 1271.67 179.236 1271.67 177.46ZM1273.72 177.443C1273.72 178.224 1274.35 178.622 1275.24 178.622C1276.52 178.622 1277.35 177.775 1277.35 176.763V176.016L1275.36 176.148C1274.35 176.231 1273.72 176.646 1273.72 177.443ZM1283.56 174.721V180H1281.43V170.985H1283.46V172.513H1283.58C1283.99 171.5 1284.9 170.869 1286.25 170.869C1288.13 170.869 1289.35 172.098 1289.34 174.256V180H1287.23V174.588C1287.23 173.376 1286.58 172.662 1285.47 172.662C1284.34 172.662 1283.56 173.409 1283.56 174.721ZM1293.49 174.721V180H1291.36V170.985H1293.39V172.513H1293.5C1293.92 171.5 1294.83 170.869 1296.18 170.869C1298.05 170.869 1299.28 172.098 1299.27 174.256V180H1297.16V174.588C1297.16 173.376 1296.51 172.662 1295.4 172.662C1294.27 172.662 1293.49 173.409 1293.49 174.721ZM1305.29 180.183C1302.57 180.183 1300.91 178.373 1300.91 175.551C1300.91 172.762 1302.6 170.869 1305.18 170.869C1307.38 170.869 1309.29 172.247 1309.29 175.418V176.082H1303C1303.03 177.618 1303.93 178.522 1305.31 178.522C1306.24 178.522 1306.87 178.124 1307.13 177.593H1309.21C1308.83 179.153 1307.38 180.183 1305.29 180.183ZM1303.02 174.638H1307.27C1307.25 173.409 1306.44 172.513 1305.21 172.513C1303.93 172.513 1303.08 173.484 1303.02 174.638ZM1313.06 167.98V180H1310.94V167.98H1313.06ZM1329.1 167.98V180H1327.17L1321.48 171.782H1321.38V180H1319.22V167.98H1321.18L1326.84 176.198H1326.96V167.98H1329.1ZM1330.81 177.46C1330.81 175.435 1332.48 174.837 1334.16 174.737C1334.78 174.696 1336.08 174.621 1336.47 174.604V173.891C1336.47 172.994 1335.89 172.479 1334.84 172.479C1333.9 172.479 1333.31 172.911 1333.15 173.559H1331.11C1331.26 172.031 1332.63 170.869 1334.89 170.869C1336.6 170.869 1338.58 171.566 1338.58 173.974V180H1336.55V178.755H1336.49C1336.09 179.519 1335.24 180.183 1333.83 180.183C1332.1 180.183 1330.81 179.236 1330.81 177.46ZM1332.85 177.443C1332.85 178.224 1333.48 178.622 1334.38 178.622C1335.66 178.622 1336.49 177.775 1336.49 176.763V176.016L1334.49 176.148C1333.48 176.231 1332.85 176.646 1332.85 177.443ZM1340.57 180V170.985H1342.6V172.513H1342.71C1343.08 171.483 1343.99 170.869 1345.18 170.869C1346.41 170.869 1347.28 171.483 1347.63 172.513H1347.72C1348.12 171.517 1349.12 170.869 1350.43 170.869C1352.07 170.869 1353.24 171.932 1353.24 173.94V180H1351.13V174.272C1351.13 173.144 1350.45 172.646 1349.58 172.646C1348.54 172.646 1347.94 173.359 1347.94 174.372V180H1345.88V174.189C1345.88 173.26 1345.25 172.646 1344.35 172.646C1343.44 172.646 1342.69 173.393 1342.69 174.521V180H1340.57ZM1359.26 180.183C1356.54 180.183 1354.88 178.373 1354.88 175.551C1354.88 172.762 1356.57 170.869 1359.15 170.869C1361.35 170.869 1363.26 172.247 1363.26 175.418V176.082H1356.97C1357 177.618 1357.9 178.522 1359.28 178.522C1360.21 178.522 1360.84 178.124 1361.11 177.593H1363.18C1362.8 179.153 1361.35 180.183 1359.26 180.183ZM1356.99 174.638H1361.24C1361.22 173.409 1360.41 172.513 1359.18 172.513C1357.9 172.513 1357.06 173.484 1356.99 174.638Z" fill="#EDEFF2"/>
<path d="M1293 188.755V195.293H1292.05V188.755H1293ZM1290.85 188.983V195.153H1289.89V192.335H1288.31V194.442H1283.94V189.567H1288.31V191.51H1289.89V188.983H1290.85ZM1284.88 190.354V193.681H1287.38V190.354H1284.88ZM1293 195.852V199.876H1285.55V195.852H1293ZM1286.53 196.639V199.063H1292.03V196.639H1286.53ZM1304.01 188.742V200.054H1303.02V193.77H1300.32V197.197H1295.11V189.631H1296.11V192.576H1299.34V189.631H1300.32V192.944H1303.02V188.742H1304.01ZM1296.11 196.372H1299.34V193.376H1296.11V196.372ZM1312.81 189.809V199H1311.65V191.002H1311.6L1309.37 192.487V191.332L1311.65 189.809H1312.81ZM1318.25 199.127C1316.59 199.127 1315.33 198.099 1315.27 196.689H1316.38C1316.46 197.515 1317.26 198.124 1318.25 198.124C1319.45 198.124 1320.31 197.248 1320.31 196.093C1320.31 194.899 1319.41 194.023 1318.18 194.011C1317.4 193.998 1316.81 194.239 1316.46 194.836H1315.36L1316.01 189.809H1320.98V190.824H1316.96L1316.62 193.516H1316.71C1317.11 193.198 1317.73 192.982 1318.38 192.982C1320.13 192.982 1321.43 194.277 1321.43 196.067C1321.43 197.845 1320.08 199.127 1318.25 199.127ZM1326.02 199.127C1323.98 199.127 1322.81 197.413 1322.81 194.404C1322.81 191.421 1324.01 189.682 1326.02 189.682C1328.04 189.682 1329.24 191.421 1329.24 194.404C1329.24 197.413 1328.06 199.127 1326.02 199.127ZM1326.02 198.111C1327.34 198.111 1328.12 196.778 1328.12 194.404C1328.12 192.03 1327.34 190.672 1326.02 190.672C1324.7 190.672 1323.92 192.03 1323.92 194.404C1323.92 196.778 1324.69 198.111 1326.02 198.111Z" fill="#96999E"/>
</g>
</svg>

