<svg width="939" height="404" viewBox="0 0 939 404" fill="none" xmlns="http://www.w3.org/2000/svg">
<path d="M162.529 357.343C169.359 358.239 176.794 360.149 183.185 362.367C187.969 364.027 192.172 365.861 195.099 367.574L192.833 376.032C167.845 382.631 154.213 389.569 131.606 403.799L131.559 403.829L124.304 392.307L124.358 392.278C146.571 380.577 158.741 377.151 185.404 368.264C181.153 365.386 175.206 365.266 168.183 366.539C161.109 367.822 152.96 370.515 144.38 373.206C135.802 375.896 126.795 378.583 118.013 379.85C109.23 381.117 100.668 380.964 92.9796 377.971C77.6248 371.992 67.9571 366.045 61.5683 360.161C55.1785 354.276 52.0713 348.456 49.8334 342.734L49.7787 342.595L49.9118 342.664C54.5581 345.084 62.2426 349.472 70.4362 353.375C78.6308 357.279 87.3233 360.694 93.9809 361.171C105.404 361.991 114.753 360.014 125.144 358.34C135.535 356.667 146.961 355.299 162.529 357.343Z" fill="url(#paint0_linear_1_2)"/>
<path d="M82.0333 272.047C96.1498 284.952 99.7754 294.277 106.151 305.455C112.526 316.631 121.656 329.673 146.788 350.032L146.887 350.112L146.761 350.131C134.626 352.019 111.349 350.198 93.6275 346.971C59.8481 340.821 31.2607 323.448 25.1937 287.769L25.3006 287.737C32.2974 303.63 50.2298 312.489 69.0313 319.12C78.4313 322.435 88.0389 325.19 96.6024 327.992C103.805 330.348 110.269 332.737 115.236 335.517C111.927 333.358 109.323 331.787 107.206 330.52C104.567 328.942 102.682 327.837 101.134 326.661C98.0332 324.304 96.286 321.664 92.5226 314.388C88.1347 305.905 87.2831 298.09 86.6311 291.02C85.9787 283.948 85.5257 277.631 81.9481 272.119L82.0333 272.047Z" fill="url(#paint1_linear_1_2)"/>
<path d="M63.1052 213.793C75.0407 229.534 76.7388 244.331 77.7669 260.921C78.795 277.51 79.1533 295.894 88.3962 318.832L88.4384 318.937L88.3294 318.908C76.4671 315.729 55.9114 304.655 41.006 294.542C26.7933 284.898 16.98 270.224 11.1183 256.128C8.18732 249.079 6.24363 242.174 5.23204 236.112C4.22063 230.051 4.1403 224.83 4.93888 221.151L4.977 220.975L5.04578 221.141C10.8419 235.145 23.0242 248.399 35.4352 260.803C41.6391 267.003 47.901 272.992 53.4456 278.752C58.8201 284.336 63.5244 289.708 66.8536 294.857C63.748 286.975 62.0148 283.259 60.938 279.564C59.8358 275.783 59.4202 272.024 58.9186 263.848C58.334 254.319 59.8803 245.061 61.3095 236.563C62.7393 228.062 64.0504 220.329 63.0048 213.836L63.1052 213.793Z" fill="url(#paint2_linear_1_2)"/>
<path d="M59.0338 160.984C65.3537 179.698 63.1956 194.27 59.8314 210.331C56.4675 226.392 51.8979 243.942 53.3801 268.629L53.3892 268.782L53.2832 268.671C46.0215 261.097 27.1645 241.868 16.2399 227.543C5.82498 213.887 1.24292 198.272 0.22509 184.458C-0.792581 170.646 1.75254 158.626 5.60083 152.159L5.6928 152.005L5.70521 152.184C6.75549 167.303 14.0124 183.076 21.7562 198.114C25.6271 205.632 29.6203 212.967 33.0166 219.941C36.3089 226.701 39.0429 233.125 40.564 239.055C40.1214 230.595 39.6579 226.52 39.8096 222.675C39.9649 218.74 40.7644 215.043 42.8845 207.131C45.3545 197.913 48.8306 189.623 51.9555 182.017C55.0813 174.408 57.8545 167.485 58.9249 160.993L59.0338 160.984Z" fill="url(#paint3_linear_1_2)"/>
<path d="M31.3017 85.3677C27.334 99.9942 29.2775 117.45 31.5583 134.312C32.6984 142.741 33.9227 151.022 34.5326 158.722C35.0484 165.232 35.1251 171.33 34.3398 176.755C34.7974 174.367 35.0975 172.029 35.3437 169.742C35.6879 166.546 35.9274 163.446 36.3457 160.459C37.1825 154.484 38.7372 148.941 43.2906 143.9C45.2252 141.068 47.9815 138.298 51.0897 135.54C54.1988 132.781 57.6644 130.03 61.0143 127.239C64.3653 124.447 67.602 121.614 70.2591 118.687C72.9163 115.76 74.991 112.742 76.0213 109.581L76.1311 109.599C75.9619 129.352 68.5289 141.413 59.4695 154.484C50.4111 167.555 39.7258 181.636 33.0275 205.442L32.986 205.589L32.9223 205.45C30.7353 200.682 26.7032 192.472 22.8899 183.227C19.0766 173.983 15.4795 163.7 14.1629 154.784C12.0422 140.424 13.4278 125.478 16.7803 112.913C20.1322 100.351 25.4531 90.1572 31.2112 85.3099L31.3488 85.194L31.3017 85.3677Z" fill="url(#paint4_linear_1_2)"/>
<path d="M71.9035 30.1426C63.9146 43.0224 60.5515 58.9842 57.6812 74.4717C54.9948 88.9667 52.7396 103.05 47.5196 113.781C53.7269 102.829 56.4847 94.9362 67.4041 88.304C72.7309 83.9846 79.8187 81.5415 86.51 78.8115C93.2084 76.0786 99.5104 73.0582 103.296 67.5877L103.396 67.6363C100.489 77.074 96.6172 83.7308 92.0305 89.0601C87.4445 94.3886 82.1449 98.388 76.3858 102.512C64.8684 110.759 51.5024 119.511 38.2711 140.402L38.1892 140.531L38.1678 140.38C36.7056 129.986 34.4252 104.738 37.0052 86.9044C39.0836 72.538 44.341 59.8251 50.8025 49.9555C57.2633 40.0871 64.931 33.0567 71.8333 30.0614L71.9984 29.9897L71.9035 30.1426Z" fill="url(#paint5_linear_1_2)"/>
<path d="M117.771 8.7233C104.42 17.8084 97.5856 27.2408 92.3319 36.7713C89.7039 41.5388 87.473 46.3276 85.018 51.1153C82.6393 55.7541 80.052 60.3878 76.6944 64.9864C81.7169 60.4959 85.7961 57.2002 90.2035 54.6331C94.7284 51.9976 99.5971 50.131 106.185 48.5252C118.925 43.5134 125.498 39.8851 136.043 31.7222L136.167 31.6264L136.133 31.7792C132.668 47.1043 120.396 55.3814 105.772 62.5036C102.115 64.2844 98.3105 65.9935 94.4587 67.7226C90.6066 69.4517 86.7074 71.2009 82.8606 73.0623C75.1668 76.7851 67.6851 80.9558 61.2154 86.3093L61.0989 86.4057L61.1241 86.2565C62.8681 75.9062 68.3168 51.148 76.1606 34.9256C80.0882 26.8026 87.8381 20.7275 95.9227 16.4337C104.008 12.1395 112.436 9.62323 117.728 8.62155L117.771 8.7233Z" fill="url(#paint6_linear_1_2)"/>
<path d="M169.931 1.11483e-05C152.23 7.14135 140.589 20.8 133.305 25.373C126.021 29.946 111.638 39.4909 96.6044 43.8516C104.684 30.6048 113.738 16.8676 123.963 11.102C133.068 5.38578 149.114 0.0729714 169.931 1.11483e-05Z" fill="url(#paint7_linear_1_2)"/>
<path d="M412.52 91.2549H395.62V28.0549H412.52V91.2549ZM361.32 64.2549C357.853 68.8549 353.586 72.5549 348.52 75.3549C343.453 78.0882 337.92 79.5215 331.92 79.6549V64.3549C335.653 64.0882 338.986 62.9549 341.92 60.9549C344.853 58.9549 347.186 56.4215 348.92 53.3549C350.72 50.2882 351.886 46.9882 352.42 43.4549H333.12V29.0549H388.32V43.4549H369.52C369.32 45.7882 368.853 48.2882 368.12 50.9549L391.92 66.8549L382.62 78.9549L361.32 64.2549ZM413.72 98.2549V113.455H336.12V83.5549H353.32V98.2549H413.72ZM511.111 28.0549V113.455H495.311V28.0549H511.111ZM473.811 28.4549H489.411V111.955H473.811V76.7549H467.711C467.178 88.5549 465.178 97.1215 461.711 102.455C458.311 107.788 453.411 110.455 447.011 110.455C440.078 110.455 434.844 107.255 431.311 100.855C427.844 94.3882 426.111 84.0215 426.111 69.7549C426.111 55.5549 427.844 45.2215 431.311 38.7549C434.844 32.2882 440.078 29.0549 447.011 29.0549C453.144 29.0549 457.944 31.5882 461.411 36.6549C464.878 41.6549 466.944 49.6215 467.611 60.5549H473.811V28.4549ZM447.011 95.1549C448.878 95.1549 450.211 93.1549 451.011 89.1549C451.811 85.1549 452.211 78.6882 452.211 69.7549C452.211 60.8215 451.811 54.3549 451.011 50.3549C450.211 46.3549 448.878 44.3549 447.011 44.3549C445.144 44.3549 443.811 46.3549 443.011 50.3549C442.211 54.3549 441.811 60.8215 441.811 69.7549C441.811 78.6882 442.211 85.1549 443.011 89.1549C443.811 93.1549 445.144 95.1549 447.011 95.1549ZM605.302 28.0549V113.455H588.402V76.0549H577.102C576.369 87.5882 573.702 96.2215 569.102 101.955C564.569 107.622 558.502 110.455 550.902 110.455C542.636 110.455 536.136 107.088 531.402 100.355C526.736 93.5549 524.402 83.3549 524.402 69.7549C524.402 56.1549 526.736 45.9882 531.402 39.2549C536.136 32.4549 542.636 29.0549 550.902 29.0549C558.102 29.0549 563.969 31.6549 568.502 36.8549C573.036 41.9882 575.836 49.7882 576.902 60.2549H588.402V28.0549H605.302ZM550.902 94.9549C557.369 94.9549 560.602 86.5549 560.602 69.7549C560.602 52.9549 557.369 44.5549 550.902 44.5549C544.369 44.5549 541.102 52.9549 541.102 69.7549C541.102 86.5549 544.369 94.9549 550.902 94.9549ZM207.659 148.355C213.659 148.355 218.826 149.455 223.159 151.655C227.559 153.855 230.926 156.888 233.259 160.755C235.592 164.622 236.759 169.022 236.759 173.955C236.759 176.888 236.192 179.755 235.059 182.555C233.992 185.288 232.126 188.422 229.459 191.955C226.859 195.422 223.159 199.622 218.359 204.555L206.659 216.655H238.359V232.055H180.059V221.655L206.759 194.155C211.359 189.422 214.526 185.555 216.259 182.555C217.992 179.488 218.859 176.688 218.859 174.155C218.859 171.022 217.926 168.588 216.059 166.855C214.259 165.055 211.459 164.155 207.659 164.155C204.126 164.155 201.326 165.355 199.259 167.755C197.259 170.155 196.259 173.022 196.259 176.355H178.359C178.359 171.088 179.592 166.322 182.059 162.055C184.592 157.788 188.059 154.455 192.459 152.055C196.926 149.588 201.992 148.355 207.659 148.355ZM277.358 148.355C283.425 148.355 288.792 149.988 293.458 153.255C298.192 156.455 301.892 161.288 304.558 167.755C307.225 174.155 308.558 181.988 308.558 191.255C308.558 200.522 307.225 208.355 304.558 214.755C301.892 221.155 298.192 225.955 293.458 229.155C288.792 232.422 283.425 234.055 277.358 234.055C271.292 234.055 265.892 232.422 261.158 229.155C256.492 225.955 252.825 221.155 250.158 214.755C247.492 208.355 246.158 200.522 246.158 191.255C246.158 181.988 247.492 174.155 250.158 167.755C252.825 161.288 256.492 156.455 261.158 153.255C265.892 149.988 271.292 148.355 277.358 148.355ZM277.358 164.255C273.158 164.255 269.758 166.522 267.158 171.055C264.625 175.588 263.358 182.322 263.358 191.255C263.358 200.122 264.625 206.822 267.158 211.355C269.758 215.888 273.158 218.155 277.358 218.155C281.558 218.155 284.925 215.888 287.458 211.355C290.058 206.822 291.358 200.122 291.358 191.255C291.358 182.322 290.058 175.588 287.458 171.055C284.925 166.522 281.558 164.255 277.358 164.255ZM344.768 148.355C350.768 148.355 355.935 149.455 360.268 151.655C364.668 153.855 368.035 156.888 370.368 160.755C372.702 164.622 373.868 169.022 373.868 173.955C373.868 176.888 373.302 179.755 372.168 182.555C371.102 185.288 369.235 188.422 366.568 191.955C363.968 195.422 360.268 199.622 355.468 204.555L343.768 216.655H375.468V232.055H317.168V221.655L343.868 194.155C348.468 189.422 351.635 185.555 353.368 182.555C355.102 179.488 355.968 176.688 355.968 174.155C355.968 171.022 355.035 168.588 353.168 166.855C351.368 165.055 348.568 164.155 344.768 164.155C341.235 164.155 338.435 165.355 336.368 167.755C334.368 170.155 333.368 173.022 333.368 176.355H315.468C315.468 171.088 316.702 166.322 319.168 162.055C321.702 157.788 325.168 154.455 329.568 152.055C334.035 149.588 339.102 148.355 344.768 148.355ZM412.368 233.955C403.634 233.955 396.634 231.655 391.368 227.055C386.168 222.455 383.234 216.188 382.568 208.255H400.468C401.201 215.122 405.168 218.555 412.368 218.555C416.034 218.555 418.934 217.355 421.068 214.955C423.201 212.488 424.268 209.355 424.268 205.555C424.268 201.688 423.168 198.588 420.968 196.255C418.834 193.855 415.868 192.655 412.068 192.655C407.068 192.655 403.234 194.488 400.568 198.155H384.068L386.468 150.555H437.968V166.055H402.968L402.068 181.355C405.868 179.088 410.234 177.955 415.168 177.955C420.501 177.955 425.168 179.055 429.168 181.255C433.234 183.455 436.368 186.655 438.568 190.855C440.834 194.988 441.968 199.888 441.968 205.555C441.968 211.155 440.668 216.122 438.068 220.455C435.534 224.722 432.001 228.022 427.468 230.355C423.001 232.755 417.968 233.955 412.368 233.955ZM488.962 185.455V200.455H450.662V185.455H488.962ZM525.628 148.355C531.628 148.355 536.794 149.455 541.128 151.655C545.528 153.855 548.894 156.888 551.228 160.755C553.561 164.622 554.728 169.022 554.728 173.955C554.728 176.888 554.161 179.755 553.028 182.555C551.961 185.288 550.094 188.422 547.428 191.955C544.828 195.422 541.128 199.622 536.328 204.555L524.628 216.655H556.328V232.055H498.028V221.655L524.728 194.155C529.328 189.422 532.494 185.555 534.228 182.555C535.961 179.488 536.828 176.688 536.828 174.155C536.828 171.022 535.894 168.588 534.028 166.855C532.228 165.055 529.428 164.155 525.628 164.155C522.094 164.155 519.294 165.355 517.228 167.755C515.228 170.155 514.228 173.022 514.228 176.355H496.328C496.328 171.088 497.561 166.322 500.028 162.055C502.561 157.788 506.028 154.455 510.428 152.055C514.894 149.588 519.961 148.355 525.628 148.355ZM595.327 148.355C601.394 148.355 606.76 149.988 611.427 153.255C616.16 156.455 619.86 161.288 622.527 167.755C625.194 174.155 626.527 181.988 626.527 191.255C626.527 200.522 625.194 208.355 622.527 214.755C619.86 221.155 616.16 225.955 611.427 229.155C606.76 232.422 601.394 234.055 595.327 234.055C589.26 234.055 583.86 232.422 579.127 229.155C574.46 225.955 570.794 221.155 568.127 214.755C565.46 208.355 564.127 200.522 564.127 191.255C564.127 181.988 565.46 174.155 568.127 167.755C570.794 161.288 574.46 156.455 579.127 153.255C583.86 149.988 589.26 148.355 595.327 148.355ZM595.327 164.255C591.127 164.255 587.727 166.522 585.127 171.055C582.594 175.588 581.327 182.322 581.327 191.255C581.327 200.122 582.594 206.822 585.127 211.355C587.727 215.888 591.127 218.155 595.327 218.155C599.527 218.155 602.894 215.888 605.427 211.355C608.027 206.822 609.327 200.122 609.327 191.255C609.327 182.322 608.027 175.588 605.427 171.055C602.894 166.522 599.527 164.255 595.327 164.255ZM662.737 148.355C668.737 148.355 673.904 149.455 678.237 151.655C682.637 153.855 686.004 156.888 688.337 160.755C690.67 164.622 691.837 169.022 691.837 173.955C691.837 176.888 691.27 179.755 690.137 182.555C689.07 185.288 687.204 188.422 684.537 191.955C681.937 195.422 678.237 199.622 673.437 204.555L661.737 216.655H693.437V232.055H635.137V221.655L661.837 194.155C666.437 189.422 669.604 185.555 671.337 182.555C673.07 179.488 673.937 176.688 673.937 174.155C673.937 171.022 673.004 168.588 671.137 166.855C669.337 165.055 666.537 164.155 662.737 164.155C659.204 164.155 656.404 165.355 654.337 167.755C652.337 170.155 651.337 173.022 651.337 176.355H633.437C633.437 171.088 634.67 166.322 637.137 162.055C639.67 157.788 643.137 154.455 647.537 152.055C652.004 149.588 657.07 148.355 662.737 148.355ZM730.36 233.955C724.693 233.955 719.493 232.755 714.76 230.355C710.093 228.022 706.36 224.722 703.56 220.455C700.826 216.122 699.46 211.122 699.46 205.455C699.46 201.722 700.06 198.222 701.26 194.955C702.46 191.622 704.326 187.922 706.86 183.855L727.86 150.555H748.46L729.96 178.155C730.626 177.888 731.393 177.755 732.26 177.755C737.526 177.755 742.36 178.922 746.76 181.255C751.226 183.588 754.76 186.855 757.36 191.055C759.96 195.255 761.26 200.022 761.26 205.355C761.26 210.822 759.86 215.722 757.06 220.055C754.326 224.388 750.593 227.788 745.86 230.255C741.193 232.722 736.026 233.955 730.36 233.955ZM730.36 218.555C734.36 218.555 737.56 217.322 739.96 214.855C742.36 212.388 743.56 209.288 743.56 205.555C743.56 201.822 742.36 198.722 739.96 196.255C737.56 193.788 734.36 192.555 730.36 192.555C726.36 192.555 723.16 193.788 720.76 196.255C718.36 198.722 717.16 201.822 717.16 205.555C717.16 209.288 718.36 212.388 720.76 214.855C723.16 217.322 726.36 218.555 730.36 218.555ZM415.098 270.555L382.898 352.055H363.298L331.098 270.555H351.698L373.898 330.555L395.998 270.555H415.098ZM503.633 353.455H486.733V268.055H503.633V353.455ZM474.333 317.055H441.633V334.255H460.133C464.133 334.255 468.166 333.888 472.233 333.155C476.299 332.355 479.633 331.355 482.233 330.155V345.355C479.699 346.622 476.333 347.622 472.133 348.355C467.999 349.088 463.766 349.455 459.433 349.455H424.833V302.055H457.533V285.255H424.633V270.055H474.333V317.055ZM598.924 329.155H581.024V285.855H521.724V270.055H598.924V329.155ZM603.624 350.455H517.224V334.555H603.624V350.455Z" fill="url(#paint8_linear_1_2)"/>
<path d="M776.084 357.343C769.254 358.239 761.819 360.149 755.429 362.367C750.644 364.027 746.441 365.861 743.514 367.574L745.78 376.032C770.769 382.631 784.4 389.569 807.007 403.799L807.054 403.829L814.309 392.307L814.255 392.278C792.043 380.577 779.872 377.151 753.209 368.264C757.46 365.386 763.407 365.266 770.431 366.539C777.504 367.822 785.653 370.515 794.233 373.206C802.811 375.896 811.818 378.583 820.601 379.85C829.383 381.117 837.946 380.964 845.634 377.971C860.988 371.992 870.656 366.045 877.045 360.161C883.435 354.276 886.542 348.456 888.78 342.734L888.835 342.595L888.701 342.664C884.055 345.084 876.371 349.472 868.177 353.375C859.982 357.279 851.29 360.694 844.632 361.171C833.209 361.991 823.861 360.014 813.469 358.34C803.079 356.667 791.652 355.299 776.084 357.343Z" fill="url(#paint9_linear_1_2)"/>
<path d="M856.58 272.047C842.463 284.952 838.838 294.277 832.462 305.455C826.088 316.631 816.957 329.673 791.825 350.032L791.726 350.112L791.852 350.131C803.987 352.019 827.264 350.198 844.986 346.971C878.765 340.821 907.353 323.448 913.42 287.769L913.313 287.737C906.316 303.63 888.383 312.489 869.582 319.12C860.182 322.435 850.574 325.19 842.011 327.992C834.808 330.348 828.345 332.737 823.377 335.517C826.686 333.358 829.29 331.787 831.408 330.52C834.046 328.942 835.931 327.837 837.479 326.661C840.58 324.304 842.327 321.664 846.091 314.388C850.478 305.905 851.33 298.09 851.982 291.02C852.635 283.948 853.088 277.631 856.665 272.119L856.58 272.047Z" fill="url(#paint10_linear_1_2)"/>
<path d="M875.508 213.793C863.573 229.534 861.874 244.331 860.846 260.921C859.818 277.51 859.46 295.894 850.217 318.832L850.175 318.937L850.284 318.908C862.146 315.729 882.702 304.655 897.607 294.542C911.82 284.898 921.633 270.224 927.495 256.128C930.426 249.079 932.37 242.174 933.381 236.112C934.393 230.051 934.473 224.83 933.674 221.151L933.636 220.975L933.567 221.141C927.771 235.145 915.589 248.399 903.178 260.803C896.974 267.003 890.712 272.992 885.168 278.752C879.793 284.336 875.089 289.708 871.76 294.857C874.865 286.975 876.598 283.259 877.675 279.564C878.777 275.783 879.193 272.024 879.695 263.848C880.279 254.319 878.733 245.061 877.304 236.563C875.874 228.062 874.563 220.329 875.608 213.836L875.508 213.793Z" fill="url(#paint11_linear_1_2)"/>
<path d="M879.579 160.984C873.26 179.698 875.418 194.27 878.782 210.331C882.146 226.392 886.715 243.942 885.233 268.629L885.224 268.782L885.33 268.671C892.592 261.097 911.449 241.868 922.373 227.543C932.788 213.887 937.37 198.272 938.388 184.458C939.406 170.646 936.861 158.626 933.012 152.159L932.92 152.005L932.908 152.184C931.858 167.303 924.601 183.076 916.857 198.114C912.986 205.632 908.993 212.967 905.597 219.941C902.304 226.701 899.57 233.125 898.049 239.055C898.492 230.595 898.955 226.52 898.804 222.675C898.648 218.74 897.849 215.043 895.729 207.131C893.259 197.913 889.783 189.623 886.658 182.017C883.532 174.408 880.759 167.485 879.688 160.993L879.579 160.984Z" fill="url(#paint12_linear_1_2)"/>
<path d="M907.312 85.3677C911.279 99.9942 909.336 117.45 907.055 134.312C905.915 142.741 904.691 151.022 904.081 158.722C903.565 165.232 903.488 171.33 904.273 176.755C903.816 174.367 903.516 172.029 903.269 169.742C902.925 166.546 902.686 163.446 902.268 160.459C901.431 154.484 899.876 148.941 895.323 143.9C893.388 141.068 890.632 138.298 887.524 135.54C884.414 132.781 880.949 130.03 877.599 127.239C874.248 124.447 871.011 121.614 868.354 118.687C865.697 115.76 863.622 112.742 862.592 109.581L862.482 109.599C862.651 129.352 870.084 141.413 879.144 154.484C888.202 167.555 898.887 181.636 905.586 205.442L905.627 205.589L905.691 205.45C907.878 200.682 911.91 192.472 915.723 183.227C919.537 173.983 923.134 163.7 924.45 154.784C926.571 140.424 925.185 125.478 921.833 112.913C918.481 100.351 913.16 90.1572 907.402 85.3099L907.264 85.194L907.312 85.3677Z" fill="url(#paint13_linear_1_2)"/>
<path d="M866.71 30.1426C874.699 43.0224 878.062 58.9842 880.932 74.4717C883.618 88.9667 885.874 103.05 891.094 113.781C884.886 102.829 882.128 94.9362 871.209 88.304C865.882 83.9846 858.795 81.5415 852.103 78.8115C845.405 76.0786 839.103 73.0582 835.317 67.5877L835.217 67.6363C838.124 77.074 841.996 83.7308 846.583 89.0601C851.169 94.3886 856.468 98.388 862.227 102.512C873.745 110.759 887.111 119.511 900.342 140.402L900.424 140.531L900.445 140.38C901.908 129.986 904.188 104.738 901.608 86.9044C899.53 72.538 894.272 59.8251 887.811 49.9555C881.35 40.0871 873.682 33.0567 866.78 30.0614L866.615 29.9897L866.71 30.1426Z" fill="url(#paint14_linear_1_2)"/>
<path d="M820.843 8.7233C834.193 17.8084 841.028 27.2408 846.281 36.7713C848.909 41.5388 851.14 46.3276 853.595 51.1153C855.974 55.7541 858.561 60.3878 861.919 64.9864C856.896 60.4959 852.817 57.2002 848.41 54.6331C843.885 51.9976 839.016 50.131 832.428 48.5252C819.689 43.5134 813.115 39.8851 802.57 31.7222L802.446 31.6264L802.48 31.7792C805.945 47.1043 818.217 55.3814 832.841 62.5036C836.498 64.2844 840.303 65.9935 844.155 67.7226C848.007 69.4517 851.906 71.2009 855.753 73.0623C863.446 76.7851 870.928 80.9558 877.398 86.3093L877.514 86.4057L877.489 86.2565C875.745 75.9062 870.296 51.148 862.453 34.9256C858.525 26.8026 850.775 20.7275 842.691 16.4337C834.605 12.1395 826.178 9.62323 820.885 8.62155L820.843 8.7233Z" fill="url(#paint15_linear_1_2)"/>
<path d="M768.682 1.11483e-05C786.383 7.14135 798.024 20.8 805.308 25.373C812.592 29.946 826.975 39.4909 842.009 43.8516C833.93 30.6048 824.875 16.8676 814.65 11.102C805.545 5.38578 789.499 0.0729714 768.682 1.11483e-05Z" fill="url(#paint16_linear_1_2)"/>
<defs>
<linearGradient id="paint0_linear_1_2" x1="169.445" y1="-0.130315" x2="65.9173" y2="386.24" gradientUnits="userSpaceOnUse">
<stop stop-color="white"/>
<stop offset="1" stop-color="white" stop-opacity="0.2"/>
</linearGradient>
<linearGradient id="paint1_linear_1_2" x1="169.445" y1="-0.130315" x2="65.9173" y2="386.24" gradientUnits="userSpaceOnUse">
<stop stop-color="white"/>
<stop offset="1" stop-color="white" stop-opacity="0.2"/>
</linearGradient>
<linearGradient id="paint2_linear_1_2" x1="169.445" y1="-0.130315" x2="65.9173" y2="386.24" gradientUnits="userSpaceOnUse">
<stop stop-color="white"/>
<stop offset="1" stop-color="white" stop-opacity="0.2"/>
</linearGradient>
<linearGradient id="paint3_linear_1_2" x1="169.445" y1="-0.130315" x2="65.9173" y2="386.24" gradientUnits="userSpaceOnUse">
<stop stop-color="white"/>
<stop offset="1" stop-color="white" stop-opacity="0.2"/>
</linearGradient>
<linearGradient id="paint4_linear_1_2" x1="169.445" y1="-0.130315" x2="65.9173" y2="386.24" gradientUnits="userSpaceOnUse">
<stop stop-color="white"/>
<stop offset="1" stop-color="white" stop-opacity="0.2"/>
</linearGradient>
<linearGradient id="paint5_linear_1_2" x1="169.445" y1="-0.130315" x2="65.9173" y2="386.24" gradientUnits="userSpaceOnUse">
<stop stop-color="white"/>
<stop offset="1" stop-color="white" stop-opacity="0.2"/>
</linearGradient>
<linearGradient id="paint6_linear_1_2" x1="169.445" y1="-0.130315" x2="65.9173" y2="386.24" gradientUnits="userSpaceOnUse">
<stop stop-color="white"/>
<stop offset="1" stop-color="white" stop-opacity="0.2"/>
</linearGradient>
<linearGradient id="paint7_linear_1_2" x1="169.445" y1="-0.130315" x2="65.9173" y2="386.24" gradientUnits="userSpaceOnUse">
<stop stop-color="white"/>
<stop offset="1" stop-color="white" stop-opacity="0.2"/>
</linearGradient>
<linearGradient id="paint8_linear_1_2" x1="469.307" y1="13.0549" x2="469.307" y2="373.055" gradientUnits="userSpaceOnUse">
<stop offset="0.25" stop-color="#EAE1C5"/>
<stop offset="1" stop-color="#544721"/>
</linearGradient>
<linearGradient id="paint9_linear_1_2" x1="769.168" y1="-0.130315" x2="872.696" y2="386.24" gradientUnits="userSpaceOnUse">
<stop stop-color="white"/>
<stop offset="1" stop-color="white" stop-opacity="0.2"/>
</linearGradient>
<linearGradient id="paint10_linear_1_2" x1="769.168" y1="-0.130315" x2="872.696" y2="386.24" gradientUnits="userSpaceOnUse">
<stop stop-color="white"/>
<stop offset="1" stop-color="white" stop-opacity="0.2"/>
</linearGradient>
<linearGradient id="paint11_linear_1_2" x1="769.168" y1="-0.130315" x2="872.696" y2="386.24" gradientUnits="userSpaceOnUse">
<stop stop-color="white"/>
<stop offset="1" stop-color="white" stop-opacity="0.2"/>
</linearGradient>
<linearGradient id="paint12_linear_1_2" x1="769.168" y1="-0.130315" x2="872.696" y2="386.24" gradientUnits="userSpaceOnUse">
<stop stop-color="white"/>
<stop offset="1" stop-color="white" stop-opacity="0.2"/>
</linearGradient>
<linearGradient id="paint13_linear_1_2" x1="769.168" y1="-0.130315" x2="872.696" y2="386.24" gradientUnits="userSpaceOnUse">
<stop stop-color="white"/>
<stop offset="1" stop-color="white" stop-opacity="0.2"/>
</linearGradient>
<linearGradient id="paint14_linear_1_2" x1="769.168" y1="-0.130315" x2="872.696" y2="386.24" gradientUnits="userSpaceOnUse">
<stop stop-color="white"/>
<stop offset="1" stop-color="white" stop-opacity="0.2"/>
</linearGradient>
<linearGradient id="paint15_linear_1_2" x1="769.168" y1="-0.130315" x2="872.696" y2="386.24" gradientUnits="userSpaceOnUse">
<stop stop-color="white"/>
<stop offset="1" stop-color="white" stop-opacity="0.2"/>
</linearGradient>
<linearGradient id="paint16_linear_1_2" x1="769.168" y1="-0.130315" x2="872.696" y2="386.24" gradientUnits="userSpaceOnUse">
<stop stop-color="white"/>
<stop offset="1" stop-color="white" stop-opacity="0.2"/>
</linearGradient>
</defs>
</svg>

