<svg xmlns="http://www.w3.org/2000/svg" viewBox="0 0 80 80" fill="none">
  <g transform="translate(40,40) scale(0.35) translate(-110,-60)">
    <path d="m 0,0 h 49.603 l 2.341,8.771 H 4.318 c -0.946,0 -1.507,0.766 -1.253,1.711 l 1.011,3.787 c 0.254,0.945 1.227,1.711 2.172,1.711 h 39.601 c 4.426,0 8.993,3.602 10.179,8.028 l 4.538,16.941 H 51.059 L 46.608,24.333 6.516,24.32 c -4.924,0 -9.955,-3.893 -11.274,-8.816 L -6.524,8.912 C -7.842,3.991 -4.921,0 0,0" fill="#00CC33"/>
    <path d="m 110,0 h -49.603 l -2.341,-8.771 h 47.626 c 0.946,0 1.507,-0.766 1.253,-1.711 l -1.037,-3.888 c -0.254,-0.946 -1.227,-1.712 -2.172,-1.712 h -39.601 c -4.426,0 -8.993,-3.602 -10.179,-8.028 l -4.512,-16.839 h 9.507 l 4.425,16.515 40.092,0.013 c 4.924,0 9.955,3.892 11.274,8.815 l 1.792,6.694 C 117.842,-3.991 114.921,0 110,0" fill="#00CC33"/>
  </g>
</svg>
