<svg xmlns="http://www.w3.org/2000/svg" viewBox="90 340 620 80" width="620" height="80">
  <g transform="translate(-1142.52)">
    <path d="m 0,0 h -27.685 l -2.058,-7.732 h 25.848 c 0.88,0 1.402,-0.711 1.166,-1.59 l -1.901,-7.102 c -0.235,-0.879 -1.136,-1.589 -2.015,-1.589 h -18.897 c -4.12,0 -7.725,-2.771 -8.786,-6.752 l -3.849,-14.377 h 8.764 l 3.6,13.367 18.919,0.015 c 4.573,0 9.248,3.615 10.474,8.188 l 2.499,9.334 C 7.303,-3.667 4.573,0 0,0" fill="#00C853" transform="matrix(1.3333333,0,0,-1.3333333,1412.8031,370.9296)"/>
    <path d="m 0,0 -5.479,-20.417 c -0.236,-0.879 -1.137,-1.592 -2.017,-1.592 h -17.012 c -0.879,0 -1.399,0.713 -1.163,1.592 L -20.192,0 c 0.235,0.877 1.136,1.59 2.016,1.59 H -1.164 C -0.285,1.59 0.235,0.877 0,0 m 2.749,9.32 h -20.753 c -4.571,0 -9.271,-3.706 -10.497,-8.279 l -6.059,-22.584 c -1.226,-4.573 1.488,-8.28 6.059,-8.28 h 20.753 c 4.571,0 9.271,3.707 10.497,8.28 L 8.808,1.041 C 10.034,5.614 7.32,9.32 2.749,9.32" fill="#00C853" transform="matrix(1.3333333,0,0,-1.3333333,1466.7271,383.3568)"/>
    <path d="m 0,0 5.473,20.419 c 0.235,0.877 1.139,1.59 2.016,1.59 h 19.485 l 2.071,7.731 H 7.656 c -4.573,0 -9.266,-3.666 -10.491,-8.239 L -8.888,-1.084 c -1.226,-4.573 1.472,-8.318 6.045,-8.318 H 18.54 l 2.096,7.81 H 1.163 C 0.286,-1.592 -0.236,-0.879 0,0" fill="#00C853" transform="matrix(1.3333333,0,0,-1.3333333,1491.3615,410.58267)"/>
    <path d="M 0,0 -2.35,-8.772 H -21.029 L -18.679,0 c 0.236,0.879 1.137,1.59 2.016,1.59 H -1.164 C -0.285,1.59 0.236,0.879 0,0 M -7.994,-29.82 H 0.523 L 8.807,1.084 c 1.225,4.571 -1.489,8.237 -6.06,8.237 h -19.238 c -4.573,0 -9.273,-3.666 -10.497,-8.237 l -8.288,-30.904 h 8.6 l 3.593,13.382 h 18.679 z" fill="#00C853" transform="matrix(1.3333333,0,0,-1.3333333,1630.4883,383.35813)"/>
    <path d="M 0,0 -3.776,-14.132 H -23.183 L -19.399,0 h -8.598 l -10.5,-39.142 h 8.598 l 4.634,17.24 h 19.407 l -4.633,-17.24 h 8.598 L 8.598,0 Z" fill="#00C853" transform="matrix(1.3333333,0,0,-1.3333333,1576.3828,370.9296)"/>
    <path d="M 0,0 0.033,0.122 20.679,19.571 H 9.501 L -5.738,5.216 H -12.8 l 3.844,14.355 h -8.598 l -10.5,-39.142 h 8.598 l 4.559,16.961 h 5.9 l 8.913,-16.961 H 10.298 L 0.013,0 Z" fill="#00C853" transform="matrix(1.3333333,0,0,-1.3333333,1678.1648,397.02387)"/>
    <path d="m 0,0 h -49.603 l -2.341,-8.771 h 47.626 c 0.946,0 1.507,-0.766 1.253,-1.711 l -1.037,-3.888 c -0.254,-0.946 -1.227,-1.712 -2.172,-1.712 h -39.601 c -4.426,0 -8.993,-3.602 -10.179,-8.028 l -4.512,-16.839 h 9.507 l 4.425,16.515 40.092,0.013 c 4.924,0 9.955,3.892 11.274,8.815 l 1.792,6.694 C 7.842,-3.991 4.921,0 0,0" fill="#00C853" transform="matrix(1.3333333,0,0,-1.3333333,1341.4056,349.48613)"/>
    <path d="m 0,0 h 49.603 l 2.341,8.771 H 4.318 c -0.946,0 -1.507,0.766 -1.253,1.711 l 1.011,3.787 c 0.254,0.945 1.227,1.711 2.172,1.711 h 39.601 c 4.426,0 8.993,3.602 10.179,8.028 l 4.538,16.941 H 51.059 L 46.608,24.333 6.516,24.32 c -4.924,0 -9.955,-3.893 -11.274,-8.816 L -6.524,8.912 C -7.842,3.991 -4.921,0 0,0" fill="#00C853" transform="matrix(1.3333333,0,0,-1.3333333,1261.7272,444.42533)"/>
  </g>
</svg>
